<svg width="44" height="22" viewBox="0 0 44 22" fill="none" xmlns="http://www.w3.org/2000/svg">
<g id="Group 84508658">
<path id="Vector" d="M42.7591 14.8767L38.5634 10.7065L42.7613 6.50868L43.1336 6.13634L42.7613 5.76401L39.9506 2.95339L39.5783 2.58105L39.206 2.95339L35.0081 7.15123L30.838 2.95552L30.4656 2.58105L30.0912 2.95339L27.2805 5.76401L26.9103 6.13634L27.2784 6.50868L31.4528 10.7065L27.2805 14.8788L26.9082 15.2512L27.2805 15.6235L30.0912 18.4341L30.4635 18.8064L30.8358 18.4341L35.0081 14.2618L39.2081 18.4362L39.5783 18.8064L39.9506 18.4341L42.7613 15.6235L43.1336 15.249L42.7591 14.8767Z" fill="white"/>
<path id="Vector_2" d="M19.4614 2.33402V21.9998H24.6783V0L19.4614 2.33402Z" fill="white"/>
<path id="Vector_3" d="M11.0659 14.1745C10.9765 15.8511 9.58928 17.1851 7.8893 17.1851C6.18931 17.1851 4.70847 15.7618 4.70847 14.0043C4.70847 12.2469 6.13186 10.8235 7.8893 10.8235C9.64673 10.8235 10.9765 12.1575 11.0659 13.8341V14.1745ZM11.0659 6.09375V6.78311C10.0935 6.35545 9.01907 6.11503 7.8893 6.11503C3.53189 6.11715 0 9.64691 0 14.0043C0 18.3617 3.53189 21.8936 7.8893 21.8936C9.01907 21.8936 10.0935 21.6532 11.0659 21.2255V22H16.2828V6.09588H11.0659V6.09375Z" fill="white"/>
</g>
</svg>
