<svg width="800" height="262" viewBox="0 0 800 262" fill="none" xmlns="http://www.w3.org/2000/svg">
<path d="M307.209 228.53C277.441 209.354 237.042 205.989 171.89 224.065C102.433 240.387 79.275 250.85 48.862 229.846C37.178 219.528 32.989 202.915 36.117 178.985C43.372 139.975 62.978 102.434 97.804 60.7922C117.242 39.1302 135.274 20.5402 159.083 13.0752C177.331 8.39223 175.625 22.7332 173.417 24.7842C171.087 24.7842 167.173 25.1512 164.148 27.1252C161.693 29.0292 154.954 35.1772 154.592 43.4472C154.07 56.1072 167.171 53.4722 172.822 46.5212C178.913 38.6882 187.915 23.6882 180.834 9.70823C177.866 4.73223 172.738 1.29323 166.371 0.122228C144.569 -1.12377 124.265 9.26923 105.525 20.7592C64.543 49.2282 31.76 88.6762 13.21 131.856C2.51596 157.909 -7.15604 195.229 7.34096 225.604C18.557 246.68 41.84 257.875 69.619 255.534C89.102 253.487 112.661 247.19 128.506 243.388C144.352 239.579 225.46 211.699 252.11 260.224C252.11 260.224 260.972 243.021 283.119 242.654C301.327 240.974 327.595 247.925 346.723 261.974C340.35 252.39 322.282 238.265 307.209 228.53Z" fill="white"/>
<path d="M180.16 65.6951C164.99 55.7421 134.5 74.7701 110.079 107.409C87.747 136.686 78.104 170.713 88.599 186.448C104.209 204.963 133.19 178.032 145.514 163.617L147.104 161.932C155.485 152.93 161.959 142.098 168.227 131.704C168.227 131.704 173.987 122.19 174.262 121.75C177.822 121.094 182.11 120.069 186.942 118.678C186.873 118.896 168.455 149.854 170.334 165.22C170.919 169.908 170.473 187.033 187.192 192.228C209.476 195.963 227.27 178.689 242.968 163.32C242.968 163.32 245.643 160.761 247.156 159.3C246.773 160.832 246.274 162.877 246.274 162.877C239.75 185.565 248.544 190.326 254.045 192.082C270.67 196.916 290.531 172.763 290.596 172.763C290.08 180.371 288.575 186.664 296.595 191.715C304.164 194.425 311.825 190.293 317.649 186.414C338.624 171.632 355.522 148.494 369.17 128.495H360.464C360.361 128.495 338.982 159.483 325.099 166.218C325.077 166.218 322.55 167.515 321.095 166.489C319.292 164.952 320.003 161.755 321.116 159.491C321.186 159.344 374.72 66.495 374.72 66.495H349.444C349.444 66.495 346.683 70.9621 346.458 71.2551C346.288 71.1091 345.883 70.3411 345.603 69.9731C329.943 48.3111 294.48 81.6311 267.781 120.271C257.502 135.129 244.415 151.858 230.845 163.933C230.845 163.933 210.741 182.361 202.152 169.121C199.012 163.558 199.978 155.425 201.749 150.084C211.75 121.614 228.983 95.777 248.594 80.188C254.129 75.873 260.147 74.625 263.132 76.455C265.978 78.141 266.437 82.309 264.637 85.164C260.07 85.018 256.41 86.406 253.436 89.48C247.576 95.628 245.54 101.557 247.403 107.12C256.454 120 274.505 94.5311 273.632 79.0161C273.32 73.4531 270.353 68.185 265.923 65.621C259.322 61.671 249.252 62.694 242.735 65.843C234.01 69.135 220.201 80.624 212.14 89.554C201.992 100.753 184.587 113.193 179.145 111.8C180.924 107.042 195.625 76.9641 180.16 65.6951ZM302.021 110.191C306.938 103.386 321.249 85.1621 324.738 82.0891C336.472 71.7661 341.162 76.308 341.568 79.526C330.617 99.139 317.692 121.608 305.54 141.808C305.565 141.736 301.737 147.589 301.737 147.589C296.37 155.783 290.966 162.81 282.151 167.712C280.894 168.081 278.822 168.228 277.443 167.199C275.783 166.101 275.128 164.271 275.315 162.368C275.844 156.076 282.25 136.832 302.021 110.191ZM164.516 121.973C164.516 121.973 164.295 122.634 164.187 122.85C164.159 122.85 153.166 140.778 153.166 140.778C146.532 149.635 138.249 160.762 127.895 166.102C124.826 167.126 120.583 167.787 118.421 165.081C113.838 159.591 116.2 151.979 118.119 145.833L118.799 143.637C124.301 128.709 133.03 115.533 141.528 103.311C141.634 103.239 141.872 103.166 141.958 103.166C141.979 103.239 142.013 103.239 142.027 103.386C147.359 113.63 157.357 118.385 164.834 120.584C164.879 120.584 164.928 120.657 164.928 120.804C164.929 121.022 164.807 121.317 164.516 121.973ZM174.93 100.825C174.881 100.971 170.034 112.095 170.034 112.095C169.333 112.68 168.225 112.388 166.955 112.095L164.779 111.727C157.946 109.606 152.792 105.068 151.203 99.6531C149.012 89.1141 158.015 80.844 161.981 77.845C165.787 75.208 171.704 73.818 175.14 76.527C177.259 79.016 178.062 82.235 178.062 85.75C178.063 90.505 176.595 95.8471 174.93 100.825ZM494.47 134.78C492.032 129.512 486.247 126.145 480.081 126.51C460.058 128.341 440.473 144.807 430.189 168.444C424.793 180.594 421.848 190.619 419.917 206.573C426.144 199.403 438.844 187.621 453.256 181.18C453.256 181.18 455.217 165.885 465.217 152.272C469.001 146.635 476.573 137.561 485.076 139.975C492.506 142.464 489.894 163.03 480.02 182.932C472.714 197.571 461.534 212.212 450.222 222.309C440.221 230.798 425.424 241.044 412.478 233.141C404.324 228.313 400.165 218.21 401.043 205.184C404.939 168.227 421.763 136.757 445.838 100.897C470.662 67.598 498.026 33.421 534.889 15.195C542.408 11.39 549.371 10.512 555.39 12.854C555.39 12.854 520.786 31.8821 504.291 67.0851C500.095 76.0151 494.259 88.087 500.136 98.773C503.207 104.334 508.659 104.774 513.05 104.481C533.269 99.796 546.332 80.915 557.005 63.645C563.193 50.545 568.693 37.518 568.693 23.027C568.693 21.271 568.602 18.93 568.454 17.172C578.113 12.051 597.922 21.124 597.922 21.124C613.401 26.249 646.36 51.499 657.478 56.327C662.901 50.034 671.813 40.521 676.832 35.763L669.567 31.298C657.937 24.199 645.644 17.465 633.545 10.806C606.066 -4.19495 583.698 1.07305 572.315 5.17205C567.841 6.78105 563.753 8.17205 563.753 8.17205C555.305 -1.04895 541.449 -0.172953 531.24 2.31705C494.526 12.855 460.439 38.5421 423.894 83.1131C397.026 118.023 380.36 148.176 371.477 177.961C364.63 198.013 362.549 227.506 379.261 244.998C393.47 259.851 412.311 256.633 425.615 251.293C454.442 237.095 480.351 206.502 493.261 171.299C496.377 160.835 499.834 146.052 494.47 134.78ZM560.757 24.492C556.941 68.257 522.922 93.947 514.504 95.993C509.403 97.016 500.699 94.7491 508.47 76.382C519.912 51.643 539.449 30.641 560.409 19.882C560.92 21.712 560.906 22.88 560.757 24.492ZM762.555 30.052C744.256 40.446 725.286 47.177 702.324 44.836C695.961 52.01 689.764 59.401 684.053 67.011C716.282 75.208 750.449 56.985 769.505 39.642C789.664 22.15 800 0.123047 800 0.123047C800 0.123047 784.89 17.393 762.555 30.052ZM416.729 66.497H392.725L379.185 88.497H403.184L416.729 66.497Z" fill="white"/>
<path d="M702.228 230.568C699.647 232.324 696.021 230.974 697.376 226.95C700.754 216.704 714.18 195.824 714.18 195.824L751.576 129.498H725.961C724.743 131.498 722.14 136.09 722.14 136.09C720.955 134.116 717.411 129.727 715.952 128.778C709.694 124.823 700.513 126.693 694.179 130.278C666.64 146.381 646.547 178.196 630.7 203.007C630.7 203.007 614.019 230.587 604.76 232.638C597.531 233.224 598.277 223.486 598.59 221.217C601.385 204.821 607.876 189.234 614.415 175.109C627.717 165.888 642.896 153.813 656.691 140.567C686.629 111.949 711.868 79.5277 715.557 72.2827C715.557 72.2827 711.564 73.0887 706.849 73.2337C683.817 105.362 636.685 152.056 622.396 159.007C628.726 143.781 669.624 71.1107 704.426 36.3487L709.903 31.0777C718.372 22.8077 727.146 14.3187 733.984 12.9277C734.706 12.8547 735.636 12.9277 736.439 14.6137C736.744 21.0527 734.347 25.8107 731.597 31.2257L727.743 39.1307C727.743 39.1307 733.202 38.1057 736.788 36.9317C740.947 29.1047 745.555 20.3197 743.856 9.85668C743.29 6.48968 740.852 3.92868 737.667 3.34268C727.285 1.36668 715.971 9.04868 706.866 15.2717L706.499 15.4897C659.697 52.1557 620.178 104.996 585.626 177.157C583.122 179.057 573.447 181.328 571.803 180.229C575.215 173.205 579.511 163.762 581.66 153.516C582.032 150.587 582.378 147.589 582.378 144.662C582.378 138.363 580.866 132.437 575.224 128.341C568.608 125.047 560.431 126.585 554.917 129.071C530.22 139.317 511.761 164.641 498.44 185.496C491.276 198.746 484.133 212.937 482.155 229.187C480.762 241.919 483.598 250.117 490.838 254.216C498.282 258.019 507.652 254.066 511.333 252.165C536.354 238.991 553.837 212.573 567.617 188.421C568.165 188.349 575.689 188.131 581.381 186.665C581.456 186.665 581.488 186.665 581.614 186.741C581.288 187.835 578.347 196.62 578.347 196.62C569.613 222.232 565.574 239.652 573.824 249.97C585.613 264.534 605.131 249.46 621.008 229.55C617.6 253.407 629.964 257.142 639.39 255.314C650.217 252.388 662.282 240.822 667.881 234.896C666.083 241.847 666.571 254.291 676.421 255.533C683.171 256.781 688.224 253.109 694.069 249.961C715.038 238.543 740.139 200.496 746.656 189.496H738.111C728.846 203.499 717.057 221.855 702.228 230.568ZM514.01 228.02C512.68 226.043 512.239 223.883 512.195 221.547C511.94 207.196 527.38 181.498 538.277 167.498H538.3C542.866 177.498 553.208 183.926 559.451 186.635C551.698 203.908 525.105 240.9 514.01 228.02ZM563.828 178.913C563.09 179.429 550.049 175.035 547.528 162.96C545.39 152.564 552.549 144.441 559.475 140.347C562.448 138.003 566.926 137.201 570.211 138.367C573.26 140.42 574.086 144.082 574.086 148.027C574.086 150.447 573.765 152.933 573.482 155.201L573.42 155.715C571.236 163.828 568.012 171.626 563.828 178.913ZM668.425 223.41C668.414 223.41 665.95 225.605 665.95 225.605C662.432 228.751 658.812 232.117 654.442 230.433C653.235 229.995 652.386 228.386 652.182 227.138C651.983 218.136 656.036 209.795 659.968 201.672L660.976 199.549C672.284 180.668 685.428 158.42 704.732 142.98C707.985 140.633 711.515 138.661 715.241 140.199C716.098 141.003 717.096 142.394 717.096 143.783C717.096 144.224 716.704 145.394 716.479 145.759C711.087 154.472 705.953 163.618 700.96 172.4C691.202 189.745 681.079 207.672 668.425 223.41Z" fill="white"/>
</svg>
